<svg xmlns="http://www.w3.org/2000/svg" xmlns:xlink="http://www.w3.org/1999/xlink" width="500" zoomAndPan="magnify" viewBox="0 0 375 374.999991" height="500" preserveAspectRatio="xMidYMid meet" version="1.0"><defs><g/></defs><path fill="rgb(0%, 0%, 0%)" d="M 194.246094 67.617188 C 149.925781 67.617188 113.996094 103.542969 113.996094 147.867188 C 113.996094 192.1875 149.925781 228.117188 194.246094 228.117188 C 238.566406 228.117188 274.496094 192.1875 274.496094 147.867188 C 274.496094 103.542969 238.566406 67.617188 194.246094 67.617188 " fill-opacity="1" fill-rule="nonzero"/><g fill="rgb(0%, 0%, 0%)" fill-opacity="1"><g transform="translate(95.869832, 259.97465)"><g><path d="M 13.546875 0.0273438 L 15.539062 0.0273438 L 8.417969 -16.550781 L 8.289062 -16.550781 L 0.90625 0.0273438 L 1.476562 0.0273438 L 4.402344 -6.5 L 10.722656 -6.5 Z M 4.585938 -6.941406 L 7.613281 -13.753906 L 10.542969 -6.941406 Z M 4.585938 -6.941406 "/></g></g></g><g fill="rgb(0%, 0%, 0%)" fill-opacity="1"><g transform="translate(117.518889, 259.97465)"><g><path d="M 7.5625 -8.652344 C 9.351562 -9.117188 11.371094 -10.203125 11.371094 -12.769531 C 11.371094 -16.058594 7.328125 -16.238281 6.164062 -16.238281 L 1.242188 -16.238281 L 1.242188 0.0273438 L 5.699219 0.0273438 C 6.398438 0.0273438 11.941406 -0.078125 11.941406 -4.480469 C 11.941406 -7.304688 9.789062 -8.367188 7.5625 -8.652344 Z M 5.179688 -15.824219 C 7.667969 -15.824219 9.402344 -15.023438 9.402344 -12.484375 C 9.402344 -9.945312 7.535156 -8.726562 4.507812 -8.726562 L 3.082031 -8.726562 L 3.082031 -15.824219 Z M 4.507812 -0.386719 L 3.082031 -0.386719 L 3.082031 -8.3125 L 5.179688 -8.3125 C 9.117188 -8.3125 9.972656 -6.269531 9.972656 -4.195312 C 9.972656 -1.140625 7.484375 -0.386719 4.507812 -0.386719 Z M 4.507812 -0.386719 "/></g></g></g><g fill="rgb(0%, 0%, 0%)" fill-opacity="1"><g transform="translate(135.672261, 259.97465)"><g><path d="M 7.5625 -8.652344 C 9.351562 -9.117188 11.371094 -10.203125 11.371094 -12.769531 C 11.371094 -16.058594 7.328125 -16.238281 6.164062 -16.238281 L 1.242188 -16.238281 L 1.242188 0.0273438 L 5.699219 0.0273438 C 6.398438 0.0273438 11.941406 -0.078125 11.941406 -4.480469 C 11.941406 -7.304688 9.789062 -8.367188 7.5625 -8.652344 Z M 5.179688 -15.824219 C 7.667969 -15.824219 9.402344 -15.023438 9.402344 -12.484375 C 9.402344 -9.945312 7.535156 -8.726562 4.507812 -8.726562 L 3.082031 -8.726562 L 3.082031 -15.824219 Z M 4.507812 -0.386719 L 3.082031 -0.386719 L 3.082031 -8.3125 L 5.179688 -8.3125 C 9.117188 -8.3125 9.972656 -6.269531 9.972656 -4.195312 C 9.972656 -1.140625 7.484375 -0.386719 4.507812 -0.386719 Z M 4.507812 -0.386719 "/></g></g></g><g fill="rgb(0%, 0%, 0%)" fill-opacity="1"><g transform="translate(153.825632, 259.97465)"><g><path d="M 12.613281 -16.238281 L 7.691406 -7.976562 L 2.953125 -16.238281 L 0.828125 -16.238281 L 6.0625 -7.070312 L 6.0625 0.0273438 L 7.925781 0.0273438 L 7.925781 -7.5625 L 13.132812 -16.238281 Z M 12.613281 -16.238281 "/></g></g></g><g fill="rgb(0%, 0%, 0%)" fill-opacity="1"><g transform="translate(172.988868, 259.97465)"><g/></g></g><g fill="rgb(0%, 0%, 0%)" fill-opacity="1"><g transform="translate(184.642874, 259.97465)"><g><path d="M 10.957031 -8.261719 L 10.957031 -7.820312 L 13.285156 -7.820312 L 13.285156 -0.542969 C 12.40625 -0.207031 11.242188 0.0507812 9.945312 0.0507812 C 5.90625 0.0507812 2.925781 -1.96875 2.925781 -8.054688 C 2.925781 -14.761719 7.199219 -16.136719 9.945312 -16.136719 C 13 -16.136719 14.683594 -15.410156 14.683594 -15.410156 L 14.683594 -15.929688 C 14.683594 -15.929688 12.898438 -16.550781 9.945312 -16.550781 C 5.285156 -16.550781 1.035156 -14.0625 1.035156 -8.054688 C 1.035156 -1.140625 6.449219 0.492188 9.710938 0.492188 C 12.949219 0.492188 15.125 -0.878906 15.125 -0.878906 L 15.125 -8.261719 Z M 10.957031 -8.261719 "/></g></g></g><g fill="rgb(0%, 0%, 0%)" fill-opacity="1"><g transform="translate(206.240139, 259.97465)"><g><path d="M 1.503906 0.0273438 L 3.339844 0.0273438 L 3.339844 -16.238281 L 1.503906 -16.238281 Z M 1.503906 0.0273438 "/></g></g></g><g fill="rgb(0%, 0%, 0%)" fill-opacity="1"><g transform="translate(216.392298, 259.97465)"><g><path d="M 12.640625 0.0273438 L 6.554688 -7.640625 C 8.46875 -7.898438 11.371094 -8.832031 11.371094 -12.171875 C 11.371094 -15.746094 7.484375 -16.238281 6.164062 -16.238281 C 4.894531 -16.238281 1.242188 -16.238281 1.242188 -16.238281 L 1.242188 0.0273438 L 3.082031 0.0273438 L 3.082031 -7.535156 L 4.273438 -7.535156 L 10.28125 0.0273438 Z M 3.082031 -15.824219 L 5.179688 -15.824219 C 7.820312 -15.824219 9.402344 -14.738281 9.402344 -11.886719 C 9.402344 -8.988281 7.535156 -7.953125 4.507812 -7.953125 L 3.082031 -7.953125 Z M 3.082031 -15.824219 "/></g></g></g><g fill="rgb(0%, 0%, 0%)" fill-opacity="1"><g transform="translate(235.089443, 259.97465)"><g><path d="M 13.546875 0.0273438 L 15.539062 0.0273438 L 8.417969 -16.550781 L 8.289062 -16.550781 L 0.90625 0.0273438 L 1.476562 0.0273438 L 4.402344 -6.5 L 10.722656 -6.5 Z M 4.585938 -6.941406 L 7.613281 -13.753906 L 10.542969 -6.941406 Z M 4.585938 -6.941406 "/></g></g></g><g fill="rgb(0%, 0%, 0%)" fill-opacity="1"><g transform="translate(256.7385, 259.97465)"><g><path d="M 12.640625 0.0273438 L 6.554688 -7.640625 C 8.46875 -7.898438 11.371094 -8.832031 11.371094 -12.171875 C 11.371094 -15.746094 7.484375 -16.238281 6.164062 -16.238281 C 4.894531 -16.238281 1.242188 -16.238281 1.242188 -16.238281 L 1.242188 0.0273438 L 3.082031 0.0273438 L 3.082031 -7.535156 L 4.273438 -7.535156 L 10.28125 0.0273438 Z M 3.082031 -15.824219 L 5.179688 -15.824219 C 7.820312 -15.824219 9.402344 -14.738281 9.402344 -11.886719 C 9.402344 -8.988281 7.535156 -7.953125 4.507812 -7.953125 L 3.082031 -7.953125 Z M 3.082031 -15.824219 "/></g></g></g><g fill="rgb(0%, 0%, 0%)" fill-opacity="1"><g transform="translate(275.435645, 259.97465)"><g><path d="M 7.953125 -16.238281 L 1.242188 -16.238281 L 1.242188 0.0273438 L 6.734375 0.0273438 C 7.511719 0.0273438 16.1875 0.414062 16.1875 -8.367188 C 16.1875 -15.460938 10.957031 -16.238281 7.953125 -16.238281 Z M 6.683594 -0.386719 L 3.082031 -0.386719 L 3.082031 -15.800781 L 6.96875 -15.800781 C 9.917969 -15.800781 14.269531 -14.710938 14.269531 -8.367188 C 14.269531 -2.046875 10.230469 -0.386719 6.683594 -0.386719 Z M 6.683594 -0.386719 "/></g></g></g><g fill="rgb(0%, 0%, 0%)" fill-opacity="1"><g transform="translate(194.334071, 282.881053)"><g/></g></g><g fill="rgb(92.939758%, 91.758728%, 91.758728%)" fill-opacity="1"><g transform="translate(113.938268, 172.647111)"><g><path d="M 69.859375 -20.894531 C 66.71875 -13.273438 62.59375 -5.648438 59.1875 -5.648438 C 56.40625 -5.648438 54.882812 -9.863281 54.882812 -21.34375 C 54.882812 -37.484375 59.367188 -55.332031 59.367188 -60.171875 C 59.367188 -62.058594 57.933594 -63.402344 55.691406 -63.402344 C 49.503906 -63.402344 42.777344 -50.308594 34.792969 -33.089844 C 34.078125 -31.65625 33.449219 -30.222656 32.820312 -28.785156 C 31.386719 -28.785156 29.953125 -28.695312 28.605469 -28.695312 C 26.632812 -28.695312 24.75 -28.785156 22.957031 -28.875 C 21.253906 -28.964844 20 -27.710938 20 -26.097656 C 20 -24.660156 21.074219 -23.496094 22.777344 -23.40625 C 25.109375 -23.316406 27.621094 -23.316406 30.222656 -23.316406 C 24.839844 -12.554688 20.175781 -5.378906 13.71875 -5.378906 C 8.878906 -5.378906 7.800781 -9.238281 5.203125 -9.238281 C 4.035156 -9.238281 3.050781 -8.160156 3.050781 -6.636719 C 3.050781 -3.226562 8.070312 0.269531 13.71875 0.269531 C 25.019531 0.269531 31.207031 -10.582031 37.214844 -23.585938 L 48.695312 -24.390625 C 48.605469 -22.777344 48.605469 -21.074219 48.605469 -19.28125 C 48.605469 -4.574219 53.359375 0 59.277344 0 C 65.914062 0 70.753906 -9.773438 74.164062 -19.011719 C 74.34375 -19.460938 74.433594 -19.910156 74.433594 -20.265625 C 74.433594 -21.792969 73.355469 -22.867188 72.191406 -22.867188 C 71.382812 -22.867188 70.488281 -22.328125 69.859375 -20.894531 Z M 49.054688 -29.773438 C 46.09375 -29.59375 42.957031 -29.324219 39.726562 -29.144531 C 40.175781 -30.042969 40.535156 -30.9375 40.984375 -31.835938 C 44.480469 -39.546875 51.207031 -54.613281 52.371094 -54.613281 C 53 -54.613281 50.128906 -44.210938 49.054688 -29.773438 Z M 49.054688 -29.773438 "/></g></g></g><path stroke-linecap="round" transform="matrix(0.000000000000000046, -0.748516, 0.676056, 0.000000000000000041, 194.687483, 198.312174)" fill="none" stroke-linejoin="miter" d="M 0.500556 0.0000252708 L 133.769419 0.0000252708 " stroke="rgb(100%, 100%, 100%)" stroke-width="1" stroke-opacity="1" stroke-miterlimit="4"/><g fill="rgb(92.939758%, 91.758728%, 91.758728%)" fill-opacity="1"><g transform="translate(199.10731, 172.647111)"><g><path d="M 50.488281 -35.242188 C 49.503906 -35.242188 48.785156 -34.882812 47.886719 -33.71875 C 44.480469 -29.324219 40.984375 -28.695312 35.0625 -28.695312 C 32.910156 -28.695312 31.835938 -27.351562 31.835938 -25.917969 C 31.835938 -23.675781 33.628906 -23.046875 36.050781 -23.046875 C 37.84375 -23.046875 39.546875 -23.226562 41.160156 -23.496094 C 41.339844 -22.507812 41.429688 -21.34375 41.429688 -20.355469 C 41.429688 -10.582031 35.871094 -4.84375 28.339844 -4.84375 C 20.175781 -4.84375 13.453125 -11.570312 13.453125 -25.648438 C 13.453125 -46.542969 25.738281 -58.199219 35.152344 -58.199219 C 39.367188 -58.199219 41.519531 -55.957031 41.519531 -52.191406 C 41.519531 -50.308594 40.894531 -48.246094 39.726562 -45.914062 C 39.457031 -45.375 39.277344 -44.75 39.277344 -44.121094 C 39.277344 -42.777344 40.445312 -41.609375 41.96875 -41.609375 C 42.957031 -41.609375 44.03125 -42.148438 44.75 -43.492188 C 46.453125 -46.722656 47.351562 -49.859375 47.351562 -52.640625 C 47.351562 -59.367188 42.867188 -63.851562 34.972656 -63.851562 C 21.882812 -63.851562 7.175781 -49.503906 7.175781 -26.007812 C 7.175781 -7.980469 15.960938 0.808594 28.339844 0.808594 C 39.457031 0.808594 47.617188 -7.355469 47.617188 -20.175781 C 47.617188 -21.882812 47.351562 -23.855469 46.992188 -25.46875 C 48.964844 -26.542969 50.667969 -27.980469 52.011719 -29.683594 C 53 -30.9375 53.269531 -31.835938 53.269531 -32.554688 C 53.269531 -33.988281 52.011719 -35.242188 50.488281 -35.242188 Z M 50.488281 -35.242188 "/></g></g></g></svg>